<svg id="Layer_1" data-name="Layer 1" xmlns="http://www.w3.org/2000/svg" viewBox="0 0 481.03 490.48"><defs><style>.cls-1{fill:#191919;}.cls-2{fill:none;stroke:#7c7c7c;stroke-miterlimit:10;stroke-width:24.15px;}</style></defs><ellipse class="cls-1" cx="240.52" cy="245.24" rx="240.52" ry="245.24"/><path class="cls-2" d="M209.46,354c-2,1.48-27.51,19.91-56.75,8.75C125.32,352.26,117.57,324.6,116,319c-6.15-21.94-2.81-51.88,18.6-70.5,21.18-18.43,47.29-14.56,50.07-14.1,17.59,2.9,29,13.12,33.66,17.37,2.8,2.57,10.16,10.73,16.27,24,3.23,7,4.21,9.67,7.42,20.43,3.11,10.4,6.91,23.13,14.06,35.38,6.53,11.19,13.73,23.53,27.84,28.63,11.31,4.08,21.9,1.64,28.35.15,12.46-2.88,18.78-8.12,26.9-12.66,29.14-16.31,60.82-12.1,67.71-11.19,4.93.66,10.08,1,16.37,2.76a72.15,72.15,0,0,1,21.9,10" transform="translate(-59.48 -54.76)"/><path class="cls-2" d="M343.19,300a160.21,160.21,0,0,1,63.9-6.33c31.59,3.3,45.84,11.46,58.2,19" transform="translate(-59.48 -54.76)"/><path class="cls-2" d="M330.61,255c11.23-3.6,36.85-10.36,56.87-10.67a168.12,168.12,0,0,1,33.84,3,178.9,178.9,0,0,1,65.43,27.21" transform="translate(-59.48 -54.76)"/></svg>